<?xml version="1.0" encoding="utf-8"?><!-- Uploaded to: SVG Repo, www.svgrepo.com, Generator: SVG Repo Mixer Tools -->
<svg fill="#000000" width="800px" height="800px" viewBox="0 0 24 24" id="clipboard-edit-left" data-name="Line Color" xmlns="http://www.w3.org/2000/svg" class="icon line-color"><path id="primary" d="M7,10V6A1,1,0,0,1,8,5h3" style="fill: none; stroke: rgb(0, 0, 0); stroke-linecap: round; stroke-linejoin: round; stroke-width: 2;"></path><path id="primary-2" data-name="primary" d="M17,5h3a1,1,0,0,1,1,1V20a1,1,0,0,1-1,1H8a1,1,0,0,1-1-1V16" style="fill: none; stroke: rgb(0, 0, 0); stroke-linecap: round; stroke-linejoin: round; stroke-width: 2;"></path><path id="secondary" d="M11,7h6V4a1,1,0,0,0-1-1H12a1,1,0,0,0-1,1ZM3.29,12.09,8.2,17H11V14.2L6.09,9.29a1,1,0,0,0-1.4,0l-1.4,1.4A1,1,0,0,0,3.29,12.09Z" style="fill: none; stroke: rgb(44, 169, 188); stroke-linecap: round; stroke-linejoin: round; stroke-width: 2;"></path></svg>