<?xml version="1.0" encoding="iso-8859-1"?>
<!-- Uploaded to: SVG Repo, www.svgrepo.com, Generator: SVG Repo Mixer Tools -->
<svg version="1.1" id="Layer_1" xmlns="http://www.w3.org/2000/svg" xmlns:xlink="http://www.w3.org/1999/xlink" 
	 viewBox="0 0 512 512" xml:space="preserve">
<polygon style="fill:#CEE8FA;" points="301.07,155.022 301.07,234.984 301.07,355.983 498.094,355.983 498.094,155.022 "/>
<path style="fill:#2D527C;" d="M349.985,222.952l-4.955,3.076c-1.538,1.025-3.076,1.367-4.272,1.367
	c-4.955,0-8.373-5.297-8.373-10.593c0-3.588,1.538-7.006,4.955-9.055l22.555-13.669c1.367-0.854,3.076-1.196,4.955-1.196
	c5.468,0,11.791,3.247,11.791,8.373v108.671c0,5.469-6.664,8.202-13.327,8.202s-13.327-2.734-13.327-8.202v-86.973H349.985z"/>
<rect x="13.906" y="156.022" style="fill:#CEE8FA;" width="287.166" height="78.966"/>
<g>
	<path style="fill:#2D527C;" d="M498.094,62.15H210.93c-7.68,0-13.906,6.226-13.906,13.906v66.056H13.906
		C6.226,142.112,0,148.337,0,156.018v78.966v200.961c0,7.68,6.226,13.906,13.906,13.906H301.07c7.68,0,13.906-6.226,13.906-13.906
		s-6.226-13.906-13.906-13.906H27.811V248.889h259.353v107.093c0,7.68,6.226,13.906,13.906,13.906h197.024
		c7.68,0,13.906-6.226,13.906-13.906V155.022V76.056C512,68.376,505.774,62.15,498.094,62.15z M224.835,89.961h259.353v51.155
		H301.07h-76.235V89.961z M27.811,221.078v-51.155h259.353v51.155H27.811z M484.189,342.077H314.976V234.984v-66.056h169.213
		V342.077z"/>
	<path style="fill:#2D527C;" d="M144.085,359.983v-3.247c0-11.449-7.006-13.669-16.403-13.669c-5.81,0-7.688-5.127-7.688-10.253
		c0-5.127,1.88-10.253,7.688-10.253c6.494,0,13.327-0.854,13.327-14.694c0-9.911-5.639-12.302-12.644-12.302
		c-8.373,0-12.644,2.051-12.644,8.715c0,5.81-2.563,9.74-12.473,9.74c-12.302,0-13.84-2.563-13.84-10.766
		c0-13.327,9.568-30.586,38.958-30.586c21.7,0,38.103,7.859,38.103,30.928c0,12.473-4.613,24.092-13.156,28.023
		c10.08,3.759,17.428,11.277,17.428,25.116v3.247c0,28.023-19.308,38.616-43.229,38.616c-29.39,0-40.667-17.941-40.667-32.295
		c0-7.688,3.247-9.74,12.644-9.74c10.935,0,13.669,2.393,13.669,8.886c0,8.031,7.519,9.911,15.207,9.911
		C139.984,375.361,144.085,371.091,144.085,359.983z"/>
	<path style="fill:#2D527C;" d="M192.61,302.401l-4.955,3.076c-1.538,1.025-3.076,1.367-4.272,1.367
		c-4.955,0-8.373-5.297-8.373-10.593c0-3.588,1.538-7.006,4.955-9.055l22.555-13.669c1.367-0.854,3.076-1.196,4.955-1.196
		c5.468,0,11.791,3.247,11.791,8.373v108.671c0,5.469-6.664,8.202-13.327,8.202c-6.664,0-13.327-2.734-13.327-8.202v-86.973H192.61z
		"/>
</g>
</svg>